<svg id="Layer_1" data-name="Layer 1" xmlns="http://www.w3.org/2000/svg" viewBox="0 0 284.04 287.66"><path d="M212.32,329.08c-5.27,0-6.63,2.67-4.79,8.45-3.26-1.13-5.41-2-7.62-2.61-6.65-1.94-13.24-4.23-20-5.5-3-.57-6.64.51-9.71,1.6-6.23,2.21-7.37,7.56-2.67,12.53,6.53,6.91,15.13,9.71,24.25,10.44,22.77,1.82,45.25-.77,67.44-5.88,9.88-2.28,19.65-5.08,29.42-7.8,1.74-.48,3.28-1.72,4.9-2.61l-.29-1.82c-2.07-.13-4.15-.35-6.22-.38-13.11-.19-26.24-.11-39.34-.66-3.12-.13-6.42-1.87-9.17-3.62-9.51-6-10.54-17-1.61-23.73,7.35-5.52,10.47-11.87,9.5-20.94-.62-5.82,1.7-8.14,7.57-9.05a32,32,0,0,1,23.71,5.72,66.39,66.39,0,0,1,24.6,31.37,9.37,9.37,0,0,0,4.94,5.07c3.58,1.17,4.17-2.37,5-4.82,3.3-10.31,8.32-19.64,15.89-27.43,8.26-8.51,17.95-12.47,29.85-8.59,5.65,1.85,9.12,5.58,9.48,11.56.48,7.82,3.67,13.75,10,18.63a14.67,14.67,0,0,1-4.55,25.57,49.57,49.57,0,0,1-14.72,2.15c-8.82.15-17.65-.4-26.48-.59-1.89,0-3.78.22-5.67.35l-.42,1.31c1.18.85,2.25,2.06,3.56,2.48,14.11,4.55,25.66,13.05,36.81,22.53a304.76,304.76,0,0,0,28,20.82c4,2.68,9.11,4.07,13.92,5.15,7.82,1.76,14.43-1.19,19.75-7,4.24-4.64,4-9.66-1.56-12.48a94.29,94.29,0,0,0-19.62-6.92c-5.94-1.48-12.18-1.78-18.29-2.52-3.15-.38-4.31-1.44-2.19-4.48,3.64-5.21,3.57-5.25-2.65-7.16-.41-.13-.72-.58-1.7-1.39,1.61-1,2.82-2.13,4.24-2.52,10.11-2.76,20.43-3.77,30.61-1,12.06,3.25,20.49,11.19,22.63,23.53,2.38,13.77-2.31,25.86-13.6,34.48-10.08,7.69-21.65,8.84-32.32,2.21-10-6.18-19-13.94-27.93-21.62-12.87-11.07-25-22.94-37.95-34-5.83-5-12.79-8.66-21-7.6-2.53.33-5.35.77-7.41,2.13-20.73,13.66-43.49,22.46-67.58,27.63-16.82,3.61-33.83,4-50.12-3-18.31-7.78-29.1-28.65-24.39-46.52,2-7.67,6.83-11.43,14.84-11.4,10.21.05,19,4.44,27.62,9.27,4.66,2.62,9,5.84,13.47,8.79Zm41.22-35.48c1.2,2,2.75,6,5.41,8.95,8.73,9.71,20.26,15.34,31.87,20.79,2.71,1.28,5.53,1.9,6.91-.89.74-1.51-.08-4.75-1.36-6.12-8-8.62-16.11-17.14-24.64-25.21-2.63-2.49-6.56-3.87-10.13-5C257.34,284.73,253.47,287.69,253.54,293.6Zm66.18,29.66a12.6,12.6,0,0,0,2.93-.88c8.09-4.53,16.46-8.69,24.09-13.9,4.23-2.89,7.51-7.38,10.68-11.56,2-2.67,3-6.24,0-9.12s-6.31-3.28-10.09-1.45c-14.41,7-23.4,19.29-31.57,32.29C313.77,321.81,316.41,323,319.72,323.26Zm1,3.1c8.07,2.59,39-10.73,41.31-16.87Zm-68.15-13.09c2.88,6.61,32.83,16.88,40.29,13.81Z" transform="translate(-155.62 -277.11)"/><path d="M231.08,391.15c-3.5,3.67-8,6.8-10.28,11.11A237,237,0,0,0,208,431.38c-3.56,9.83-5.86,20.12-9.07,30.09-.65,2-2.91,3.49-4.43,5.22-1.67-2.19-4.91-4.5-4.76-6.56a351.27,351.27,0,0,1,4.14-35.61c1.67-9.47,4.81-18.67,7.22-28a8.25,8.25,0,0,0-.5-5.47,32.75,32.75,0,0,0-3.23,3.55c-9.75,14.1-16.14,29.82-21.79,45.87-1.94,5.49-3.35,11.16-5.05,16.73-.48,1.58-.78,3.4-1.77,4.6-1.13,1.37-3.08,3.14-4.44,3s-3.7-2.39-3.76-3.8c-.28-6.26-.64-12.67.37-18.81,2.84-17.23,6.28-34.37,9.62-51.52.68-3.48,2-6.84,3.06-10.48,12.65,4.26,8,14.36,8.5,24,3.82-5.5,6.79-9.73,9.71-14,2.71-3.95,5.52-7.8,11.17-6.63,5.25,1.08,7.93,4.66,8.87,11.17a32.83,32.83,0,0,0,1.35,4.38c2.68-3.2,4.7-5.73,6.83-8.14,5.22-5.93,9.31-7.2,14.79-4.7,6.82,3.1,9.8,8.24,8.51,15.73-2.08,12.13-4.62,24.18-6.67,36.32-1.4,8.33-2.19,16.75-3.5,25.1-.27,1.72-1.64,3.26-2.51,4.88-1.64-1-4.33-1.57-4.76-2.91-1.88-5.93-4.9-12.29-4.22-18.1,1.45-12.31,4.93-24.38,7.63-36.53,1.05-4.71,2.33-9.36,3.33-14.08a23,23,0,0,0,0-4.7Z" transform="translate(-155.62 -277.11)"/><path d="M282.79,404.79c3.4,2,6.69,3.11,8.53,5.38,1.46,1.79,2,5.21,1.47,7.6-2.39,11.34-5.53,22.53-7.8,33.89-.62,3.07.9,6.56,1.44,9.86,2.66-2.23,5.68-4.16,7.9-6.76,2.8-3.3,5-7.15,7.39-10.76l1.75.68c-.22,1.74-.32,3.51-.68,5.21-1.27,6,.11,9.93,4.75,13.05,3,2,6.26,2.78,9.22.23,2.78-2.39,3.67-5.72,1.89-9.05-3-5.57-6.41-10.89-9.39-16.45s-4.1-11.24-1.69-17.27a15.46,15.46,0,0,1,23.59-7.11c4.31,3,6.15,12.22,3.17,16.34-.42.58-1.58,1.28-1.95,1.08a3.06,3.06,0,0,1-1.54-2.1c0-1.81.94-3.85.38-5.39-.8-2.23-2.38-5.49-4.05-5.76-2.14-.36-5.52,1.18-6.91,3-3.22,4.25-1.95,11.19,1.41,15.89a60.06,60.06,0,0,1,6.66,11.57c3.36,8.11.86,15.69-5.71,19-8.16,4.13-18.24,2-22.82-4.92-.79-1.19-1.53-2.41-2.62-4.13-4.49,4.41-7.07,11.15-14.55,9.37-6.53-1.54-9.92-6.23-11.57-13.67-1.76,1.79-2.87,2.75-3.78,3.87-1.87,2.32-3.56,4.79-5.45,7.09-2.78,3.39-6.29,4.1-10.33,2.5s-7.23-4.22-7.35-9.07c-.36-15.26,4-28.73,16.29-38.41a22.1,22.1,0,0,1,12.32-4.15c7.35-.23,8.18-.28,9.5-7.75C282.37,407.05,282.49,406.43,282.79,404.79ZM254.53,461c1.62-.18,2.26-.06,2.57-.32,7.83-6.61,14.54-14,16.5-24.54.7-3.74,1.44-7.48,2.06-11.23a33.24,33.24,0,0,0,.16-4.12c-1.53.25-3.21.2-4.56.85a13.79,13.79,0,0,0-3.83,3.1c-7.6,8-11.11,18-12.84,28.63C254.21,455.68,254.53,458.14,254.53,461Z" transform="translate(-155.62 -277.11)"/><path d="M351,411.17c5.35,1.4,8.08,4.14,7.64,9.05-.63,7.09-1.58,14.15-1.53,21.78,1.31-2.09,2.52-4.25,4-6.25,4.22-5.92,8.46-11.83,12.83-17.63,2.25-3,5.47-2.74,8-.82,1.86,1.42,4.06,4,4,6-.05,4.93-1.22,9.85-2.08,14.75-1.32,7.51-2.9,15-4.05,22.51-.26,1.71.43,4.9,1.33,5.17,1.74.51,4.08-.3,5.93-1.1,1.57-.69,2.79-2.15,4.52-3.55-2.06,6.22-7.52,10.08-12.78,9.43-4.51-.56-9.36-6.43-8.83-12.37.81-9.07,2.58-18.05,4-27.07.26-1.71.6-3.4.9-5.1l-1.24-.56c-1.17,1.45-2.65,2.74-3.46,4.37-5.72,11.62-11.2,23.37-17.06,34.92-.94,1.86-3.65,4.28-5.12,4-1.74-.3-4.19-3.15-4.31-5-.41-6.6-.71-13.38.33-19.87C345.69,433,348.5,422.42,351,411.17Z" transform="translate(-155.62 -277.11)"/><path d="M424.39,449.68c-3.2,5.12-5.76,10.81-9.74,15.23-5.44,6-16.91,2.83-18.85-5.17a43.47,43.47,0,0,1-.79-15.13,98,98,0,0,1,9.38-30.72c7.5,2.73,9.81,7.31,7.94,14.15-2.36,8.65-4.73,17.33-6.39,26.12-.58,3.06.94,6.51,1.51,9.78,2.48-1.7,5.3-3.06,7.35-5.16,3-3,5.41-6.63,8.07-10Z" transform="translate(-155.62 -277.11)"/><path d="M168.9,544.19c0-5.33-.14-10.66.11-16,.06-1.28,1.47-3.6,2.19-3.57,6.77.27,13.82-.09,20.2,1.75,9.49,2.73,14.07,10.84,13.07,19.9a20,20,0,0,1-17.95,17.94,77.6,77.6,0,0,1-14.46.14c-1.14-.09-2.95-2.35-3-3.7-.35-5.47-.15-11-.15-16.48ZM180.55,527c-6.45-.09-6.81,0-6.86,3.73-.13,9.31-.1,18.62,0,27.93a4.2,4.2,0,0,0,1.67,3.17c6.53,3.16,20-2,22.83-9C202.93,541.27,199.21,527.07,180.55,527Z" transform="translate(-155.62 -277.11)"/><path d="M243.72,564.58c-12.19-.12-19.87-7.94-19.8-20.14.07-12,8.68-20.33,20.66-20.07s20,8.63,19.93,20.37C264.42,556.84,256.18,564.71,243.72,564.58Zm-15.2-20.18c-1,10,6,17.82,15.71,17.66s15.61-6.62,15.67-17.32S253.79,527,244.06,527C234.64,527,228.52,533.82,228.52,544.4Z" transform="translate(-155.62 -277.11)"/><path d="M292.51,510.78a23.17,23.17,0,0,1,0-4.64c1.5-7.16,3.08-14.3,4.84-21.4.29-1.18,1.6-2.11,2.44-3.15,1,1.07,2.59,2,2.91,3.24,1.2,4.66,2,9.44,2.94,14.16a9.91,9.91,0,0,0,2.56,5.16L319,486.53c.43-.71.64-1.7,1.26-2.13a51.72,51.72,0,0,1,4.78-2.67c.24,1.6.94,3.28.66,4.79-1.28,6.86-2.81,13.68-4.31,20.5-.32,1.45-.88,2.85-1.32,4.28l-1.91-.4c.54-3.36,1-6.73,1.64-10.07.63-3.54,1.37-7.06,2.07-10.59l-1.41-.65L306.94,511h-1.29l-4.92-22.75-1.19-.08-5.28,23Z" transform="translate(-155.62 -277.11)"/><path d="M409,527.93a94.8,94.8,0,0,0-10.2-.86c-2.41,0-5.38.25-7.06,1.64a10.22,10.22,0,0,0-3.51,6.9c0,1.79,2.36,4.36,4.28,5.22,3.59,1.63,7.62,2.28,11.47,3.32,4.47,1.21,7.27,4.05,7.76,8.67.48,4.46-2.45,8.66-7.12,10.27a30.07,30.07,0,0,1-20.6-.27v-1.43c2.44.11,4.87.34,7.3.31a56.67,56.67,0,0,0,9.86-.52c3.83-.73,6-3.44,6.09-7.46.06-3.86-2.42-5.54-5.79-6.43-3.85-1-7.72-2-11.51-3.2-4-1.29-6.44-4.13-6.54-8.46-.1-4.16,1.61-7.6,5.53-9.27,6.77-2.9,13.55-2.46,20.19,0Z" transform="translate(-155.62 -277.11)"/><path d="M260.4,511.12c1.9-9,3.67-17.43,5.4-25.83.55-2.64,1.89-3.77,4.8-3.85,10.38-.28,15.72,2.69,16.47,9.59,1.07,9.72-4.83,18.53-13.9,20C269.19,511.65,265,511.12,260.4,511.12Zm23.48-17.21c.17-7.39-6.71-12.34-13.44-9.54a4.06,4.06,0,0,0-2,2.49c-1.38,6-2.59,11.95-3.83,17.94-.62,3,.61,4.22,3.69,4.22C277.29,509,283.68,503,283.88,493.91Z" transform="translate(-155.62 -277.11)"/><path d="M227.94,510.62l6.16-29,2.29-.45q5.79,11.74,11.59,23.48l1.19.18,5.41-22.68,2.32.57q-3,14.33-5.95,28.65l-2.31.47L236.1,487l-5.8,24.29Z" transform="translate(-155.62 -277.11)"/><path d="M359.36,511.36c1.92-9.42,3.58-17.88,5.41-26.3a5.05,5.05,0,0,1,2.12-3.14c8.7-4.48,19.88,2.7,19.45,12.38a17.72,17.72,0,0,1-17,17C366.24,511.48,363.11,511.36,359.36,511.36ZM372,484.08c-2.85-.76-4.46.77-5,4.34-.59,3.94-1.92,7.76-2.5,11.69-.41,2.75-.1,5.6-.11,8.41,3.39-.36,6.81-.57,10.16-1.15a8.19,8.19,0,0,0,3.37-2.05c4.1-3.38,6.55-11.56,4.64-15.91S377.06,484,372,484.08Z" transform="translate(-155.62 -277.11)"/><path d="M363.29,564.43c-7.88,0-15.76.08-23.63-.15-.71,0-1.92-2.15-1.93-3.31q-.23-16.5,0-33c0-1.14,1.34-2.25,2.06-3.38.8,1.2,2.27,2.39,2.3,3.61.2,9.49.28,19,0,28.5-.1,4.19,1.44,5.65,5.53,5.46,5.19-.24,10.4-.06,15.59-.06Z" transform="translate(-155.62 -277.11)"/><path d="M314,564.48c-7.75,0-15.51.11-23.25-.16-.78,0-2.1-2.36-2.12-3.63q-.25-16.22,0-32.42c0-1.25,1.43-2.47,2.19-3.71.75,1.27,2.13,2.52,2.17,3.81.2,8.14.14,16.29.11,24.44,0,10.31-.54,9.26,9.53,9.28H314C314,562.88,314,563.68,314,564.48Z" transform="translate(-155.62 -277.11)"/><path d="M175.64,482.46c-.51,2.8-.94,5.61-1.55,8.39s.07,4.58,3.36,4.4c.66,0,1.33,0,2,0,10.59-.22,10.15,2,12.1-9.42a15,15,0,0,1,1.65-3.61l1.89.59L189,511.4l-2.16-.29c.55-4.13,1.1-8.27,1.74-13.16-4.9,0-9.34-.22-13.73.16-1,.09-2.24,2.1-2.71,3.45-1.12,3.21-1.84,6.56-2.73,9.86l-2.25-.59q3-14.41,6-28.84Z" transform="translate(-155.62 -277.11)"/><path d="M196.28,510.38l16.33-28.88,2.29.15,6,28.82-1.6.69c-.7-1.17-1.34-2.38-2.11-3.5-1.09-1.59-2.32-4.44-3.42-4.41-3.82.13-8.4-2.39-11.36,2.36-1.31,2.11-2.91,4-4.38,6Zm10-11.45.94,1.71c2.57-.48,7.29-.76,7.36-1.49.34-3.49-.58-7.11-1.05-10.69l-1.56,0Z" transform="translate(-155.62 -277.11)"/><path d="M350.4,511.3a17,17,0,0,1-1.39-3.13c-.57-2.44-.63-5.41-4.16-5.12-3.85.32-8.47-2-11.18,3a54.74,54.74,0,0,1-3.9,5.62l-1.93-1.31q8.21-14.57,16.42-29.13l2.27.37,5.85,29.12Zm-12.73-11.85c9,2,9.91,1.15,8.27-6.16-.34-1.53-.66-3.07-1-4.61l-1.22-.38C341.8,491.84,339.87,495.38,337.67,499.45Z" transform="translate(-155.62 -277.11)"/><path d="M413.11,484.08c-3,0-6,0-9,0-4.3.05-8.32,5.93-6.34,9.59.52.94,2.46,1.34,3.82,1.55,2.17.33,4.39.3,6.59.42l0,1.78-7.78.39c-3.71.18-6,3.39-5.77,8.17.15,4.17,3.32,2.81,5.54,3s4.65.18,7,.31c.23,0,.43.44,1.32,1.4H390.69c1.93-8.92,3.81-17.78,5.81-26.62.2-.85,1.09-2.19,1.69-2.21,5-.18,10-.1,14.95-.1Z" transform="translate(-155.62 -277.11)"/><path d="M419.75,375.66c-1,4.37-2.27,7.76-5.91,7.62-1.7-.07-4.23-3.51-4.65-5.74-.77-4.07,2.55-8.13,5.45-7.15C416.7,371.08,418.07,373.83,419.75,375.66Z" transform="translate(-155.62 -277.11)"/></svg>